#!OML:ASF X:\für Bonn\!DataBase\2005_08_12_Daniel\c3d\Daniel.ASF
:FULLY-SPECIFIED
:DEGREES
47
root -2.96261 13.9155 -3.0671 314.652 -80.874 -330.43
lowerback 35.9581 -2.80508 -1.40487
upperback 3.81688 -5.2448 -3.57491
thorax -14.1551 -2.53911 -0.800897
lowerneck 11.2255 2.54316 -2.23868
upperneck 1.13825 3.01047 1.05963
head -1.6 1.42352 0.574907
rclavicle -1.93815e-014 2.34566e-014
rhumerus 63.3318 -0.936316 -98.3141
rradius 7.93475
rwrist 67.211
rhand -19.7375 12.2917
rfingers 7.12502
rthumb 6.59324 -17.5857
lclavicle -1.93815e-014 2.34566e-014
lhumerus 68.6674 -4.51673 85.1323
lradius 5.88903
lwrist -61.0766
lhand -16.9327 3.01729
lfingers 7.12502
lthumb 9.30032 32.7921
rfemur -26.052 -24.0106 -0.886943
rtibia 89.7241
rfoot -25.8191 18.2304
rtoes -8.25843
lfemur -33.6975 3.11297 -16.2567
ltibia 85.2506
lfoot -28.9662 -17.5917
ltoes -1.01492
48
root -2.951 13.726 -3.06365 314.44 -80.9303 -330.466
lowerback 36.6001 -2.80471 -1.37381
upperback 3.77463 -5.25557 -3.52388
thorax -14.3323 -2.54275 -0.75969
lowerneck 11.3709 2.50868 -2.26169
upperneck 0.985686 2.95862 1.00387
head -1.67454 1.39991 0.561756
rclavicle 1.51076e-014 1.31198e-014
rhumerus 63.762 -0.812618 -98.116
rradius 7.91397
rwrist 66.6907
rhand -19.601 12.4125
rfingers 7.12502
rthumb 6.72504 -17.4607
lclavicle 1.51076e-014 1.31198e-014
lhumerus 69.1533 -4.52174 85.2171
lradius 5.6832
lwrist -61.3403
lhand -16.9702 3.2048
lfingers 7.12502
lthumb 9.26409 32.9813
rfemur -27.1623 -24.8541 -1.61999
rtibia 92.1316
rfoot -25.465 19.4013
rtoes -7.75076
lfemur -35.0287 3.74591 -15.8904
ltibia 87.6028
lfoot -28.8319 -18.5117
ltoes -0.727397
49
root -2.94039 13.5314 -3.05993 314.14 -80.991 -330.398
lowerback 37.1281 -2.79695 -1.33491
upperback 3.81271 -5.25304 -3.5027
thorax -14.4898 -2.5419 -0.737711
lowerneck 11.4804 2.45899 -2.2296
upperneck 0.848313 2.89394 0.92493
head -1.73619 1.37084 0.532889
rclavicle -5.79457e-014 -2.0276e-014
rhumerus 64.1811 -0.716789 -97.9239
rradius 7.90398
rwrist 66.2586
rhand -19.5252 12.5094
rfingers 7.12502
rthumb 6.79815 -17.3615
lclavicle -5.79457e-014 -2.0276e-014
lhumerus 69.6439 -4.56404 85.2986
lradius 5.46726
lwrist -61.5703
lhand -17.0084 3.45752
lfingers 7.12502
lthumb 9.22721 33.2356
rfemur -28.3018 -25.7494 -2.39443
rtibia 94.5356
rfoot -25.109 20.5442
rtoes -7.33623
lfemur -36.3876 4.40171 -15.5192
ltibia 89.9748
lfoot -28.6665 -19.4109
ltoes -0.407668
50
root -2.92979 13.3316 -3.05627 313.891 -81.054 -330.408
lowerback 37.6723 -2.79299 -1.28387
upperback 3.86693 -5.25126 -3.48135
thorax -14.6327 -2.54301 -0.721588
lowerneck 11.5399 2.41184 -2.21149
upperneck 0.715594 2.83309 0.863272
head -1.78827 1.34366 0.512218
rclavicle -4.96962e-015 2.22639e-014
rhumerus 64.6047 -0.625274 -97.7329
rradius 7.91236
rwrist 65.9451
rhand -19.4658 12.5595
rfingers 7.12502
rthumb 6.85548 -17.3095
lclavicle -4.96962e-015 2.22639e-014
lhumerus 70.1271 -4.59687 85.3702
lradius 5.29491
lwrist -61.8045
lhand -17.0351 3.71461
lfingers 7.12502
lthumb 9.20149 33.4938
rfemur -29.3892 -26.6769 -3.22313
rtibia 96.9269
rfoot -24.6709 21.7682
rtoes -6.76946
lfemur -37.7553 5.10351 -15.1077
ltibia 92.3715
lfoot -28.4746 -20.3556
ltoes -0.0831914
51
root -2.91955 13.1272 -3.05229 313.501 -81.1394 -330.279
lowerback 38.2302 -2.78254 -1.22719
upperback 3.88888 -5.24131 -3.47553
thorax -14.8181 -2.53954 -0.72791
lowerneck 11.6906 2.36357 -2.18087
upperneck 0.556062 2.76995 0.819106
head -1.86589 1.31447 0.494191
rclavicle 1.61016e-014 2.98177e-014
rhumerus 64.9481 -0.539934 -97.564
rradius 7.94223
rwrist 65.6942
rhand -19.4065 12.5238
rfingers 7.12502
rthumb 6.91272 -17.3433
lclavicle 1.61016e-014 2.98177e-014
lhumerus 70.5516 -4.64454 85.4293
lradius 5.12141
lwrist -62.0363
lhand -17.0596 3.94998
lfingers 7.12502
lthumb 9.17787 33.7303
rfemur -30.4687 -27.6564 -4.10533
rtibia 99.3117
rfoot -24.2209 22.986
rtoes -6.2196
lfemur -39.1304 5.88484 -14.6691
ltibia 94.7671
lfoot -28.0966 -21.3109
ltoes 0.290143
